<?xml version="1.0" encoding="UTF-8"?>
<svg version="1.1" xmlns="http://www.w3.org/2000/svg" width="512" height="512">
<path d="M0 0 C0.86297026 0.4266563 1.72594053 0.8533126 2.6150614 1.29289788 C5.49544628 2.72184759 8.36385338 4.17332135 11.2328186 5.62504578 C13.29901894 6.65599944 15.36591137 7.68556702 17.43344116 8.71385193 C23.03950201 11.50719519 28.63536857 14.32041653 34.22940779 17.13774133 C40.0821877 20.08170178 45.94339931 23.00878306 51.80352783 25.93807983 C61.63957272 30.85726604 71.46882411 35.78985139 81.29434204 40.73002625 C91.40573328 45.8139208 101.52267836 50.88653475 111.64590454 55.94682312 C112.58195926 56.41473061 112.58195926 56.41473061 113.53692417 56.89209078 C114.15988111 57.20348854 114.78283806 57.5148863 115.42467248 57.83572036 C126.36791023 63.30603007 137.30647839 68.78560154 148.24254227 74.27023888 C152.90074945 76.60641419 157.56031308 78.93985163 162.22092819 81.27121925 C167.70270651 84.01411289 173.1803442 86.76510532 178.65483856 89.52250671 C180.6683075 90.53509744 182.68315006 91.54496194 184.69942856 92.55194664 C187.44337127 93.92294101 190.18221153 95.3036243 192.91992188 96.68701172 C193.72573838 97.08682277 194.53155488 97.48663381 195.36179006 97.89856035 C196.09235164 98.27029003 196.82291322 98.64201971 197.57561302 99.02501392 C198.20844715 99.34283984 198.84128129 99.66066576 199.49329221 99.98812276 C201.07901001 101.03398132 201.07901001 101.03398132 203.07901001 104.03398132 C203.26891212 106.97011964 203.33970791 109.81058668 203.31951904 112.74679565 C203.32208232 114.09821285 203.32208232 114.09821285 203.32469738 115.47693139 C203.32800218 118.50799081 203.31697226 121.53883083 203.30606079 124.56987 C203.30549689 126.73777257 203.30581282 128.90567553 203.3069458 131.07357788 C203.30752114 136.96993965 203.29573749 142.86622054 203.28179789 148.76256347 C203.26932073 154.92052157 203.26812241 161.0784814 203.26574707 167.2364502 C203.25952342 178.90238786 203.24310064 190.56828817 203.22304809 202.23420936 C203.2007166 215.51334504 203.18970259 228.79247826 203.17965722 242.07162893 C203.15873518 269.39243379 203.12354203 296.71320547 203.07901001 324.03398132 C197.79901001 324.03398132 192.51901001 324.03398132 187.07901001 324.03398132 C187.07901001 254.40398132 187.07901001 184.77398132 187.07901001 113.03398132 C185.09901001 112.37398132 183.11901001 111.71398132 181.07901001 111.03398132 C179.82458794 110.48294776 178.58224935 109.9028709 177.35894775 109.28582478 C176.34336068 108.77731762 176.34336068 108.77731762 175.3072567 108.25853759 C174.21901824 107.70595638 174.21901824 107.70595638 173.10879517 107.14221191 C172.32385996 106.74777647 171.53892475 106.35334103 170.73020363 105.946953 C168.10757186 104.62793457 165.48786269 103.30321355 162.86807251 101.9785614 C160.98551798 101.03045197 159.10276137 100.08274369 157.21981812 99.13540649 C153.16899144 97.09667459 149.1193074 95.05569622 145.07040405 93.01314735 C138.66975133 89.78497669 132.26476108 86.56548156 125.85879517 83.34786987 C123.66527802 82.24596769 121.4717661 81.1440551 119.27825928 80.04213238 C118.17995914 79.49039675 117.08165901 78.93866112 115.95007706 78.37020624 C101.03920191 70.87871503 86.13213893 63.37971885 71.23330688 55.86430359 C61.1794242 50.79291256 51.1199179 45.73287245 41.05384636 40.68571585 C35.72737417 38.01439673 30.40405063 35.33717717 25.08761597 32.64592934 C20.09084975 30.1165551 15.08689338 27.602039 10.07697296 25.09882545 C8.23834134 24.17680808 6.40246309 23.24927673 4.56957245 22.3158989 C2.06992782 21.04398571 -0.43878742 19.79211417 -2.95077515 18.5447998 C-4.03901361 17.98218035 -4.03901361 17.98218035 -5.14923668 17.40819484 C-9.50399521 15.27807381 -12.23930569 14.66783707 -16.92098999 16.03398132 C-18.96374657 16.76052324 -18.96374657 16.76052324 -20.81723022 17.71708679 C-21.52422562 18.06231888 -22.23122101 18.40755096 -22.9596405 18.76324463 C-23.70872177 19.13875961 -24.45780304 19.5142746 -25.22958374 19.90116882 C-26.42166695 20.4868589 -26.42166695 20.4868589 -27.63783264 21.0843811 C-30.21489816 22.3522589 -32.78659067 23.63066147 -35.35848999 24.90898132 C-37.14239366 25.78837132 -38.92673859 26.66686674 -40.71151733 27.54447937 C-44.21830284 29.26908759 -47.72367842 30.99650812 -51.2281189 32.72587585 C-56.8129337 35.47764995 -62.42243655 38.174709 -68.04598999 40.84648132 C-76.47594897 44.86078461 -84.88943649 48.90843705 -93.29598999 52.97148132 C-102.33170681 57.33809952 -111.371819 61.69528796 -120.42098999 66.03398132 C-129.42806143 70.35272699 -138.42678743 74.68852097 -147.42098999 79.03398132 C-157.41433827 83.86216909 -167.41225579 88.68061541 -177.42391968 93.4707489 C-182.53707913 95.91947164 -187.64289878 98.38203172 -192.73544312 100.87330627 C-195.39599757 102.17459255 -198.05851262 103.47184261 -200.72103882 104.76908875 C-202.00901883 105.39816224 -203.29598841 106.02930922 -204.58187866 106.66264343 C-206.37466519 107.54551023 -208.17119764 108.42075791 -209.96786499 109.29570007 C-211.512323 110.05306458 -211.512323 110.05306458 -213.08798218 110.82572937 C-215.92098999 112.03398132 -215.92098999 112.03398132 -220.92098999 113.03398132 C-220.92098999 232.82398132 -220.92098999 352.61398132 -220.92098999 476.03398132 C-218.28098999 476.03398132 -215.64098999 476.03398132 -212.92098999 476.03398132 C-212.92098999 439.07398132 -212.92098999 402.11398132 -212.92098999 364.03398132 C-202.36098999 364.03398132 -191.80098999 364.03398132 -180.92098999 364.03398132 C-180.92098999 303.31398132 -180.92098999 242.59398132 -180.92098999 180.03398132 C-70.04098999 180.03398132 40.83901001 180.03398132 155.07901001 180.03398132 C155.07901001 227.55398132 155.07901001 275.07398132 155.07901001 324.03398132 C149.79901001 324.03398132 144.51901001 324.03398132 139.07901001 324.03398132 C139.07901001 302.91398132 139.07901001 281.79398132 139.07901001 260.03398132 C38.75901001 260.03398132 -61.56098999 260.03398132 -164.92098999 260.03398132 C-164.92098999 294.35398132 -164.92098999 328.67398132 -164.92098999 364.03398132 C-138.52098999 364.03398132 -112.12098999 364.03398132 -84.92098999 364.03398132 C-84.92098999 400.99398132 -84.92098999 437.95398132 -84.92098999 476.03398132 C-57.53098999 476.03398132 -30.14098999 476.03398132 -1.92098999 476.03398132 C-2.58098999 474.38398132 -3.24098999 472.73398132 -3.92098999 471.03398132 C-3.92098999 470.04398132 -3.92098999 469.05398132 -3.92098999 468.03398132 C-12.17098999 468.03398132 -20.42098999 468.03398132 -28.92098999 468.03398132 C-28.92098999 444.27398132 -28.92098999 420.51398132 -28.92098999 396.03398132 C-21.00098999 396.03398132 -13.08098999 396.03398132 -4.92098999 396.03398132 C-4.92098999 359.07398132 -4.92098999 322.11398132 -4.92098999 284.03398132 C37.31901001 284.03398132 79.55901001 284.03398132 123.07901001 284.03398132 C123.07901001 320.99398132 123.07901001 357.95398132 123.07901001 396.03398132 C125.71901001 396.03398132 128.35901001 396.03398132 131.07901001 396.03398132 C131.07901001 374.91398132 131.07901001 353.79398132 131.07901001 332.03398132 C154.17901001 332.03398132 177.27901001 332.03398132 201.07901001 332.03398132 C202.39901001 335.00398132 203.71901001 337.97398132 205.07901001 341.03398132 C205.89735681 342.78721297 206.7209486 344.53801845 207.55264282 346.28495789 C210.64043293 352.88305549 213.54406705 359.55275134 216.32901001 366.28398132 C216.58475044 366.90128868 216.84049088 367.51859604 217.10398102 368.15460968 C230.50287389 400.83205326 229.31708444 433.32974189 227.07901001 468.03398132 C221.46901001 468.03398132 215.85901001 468.03398132 210.07901001 468.03398132 C209.74901001 470.01398132 209.41901001 471.99398132 209.07901001 474.03398132 C208.74901001 474.69398132 208.41901001 475.35398132 208.07901001 476.03398132 C216.98901001 476.03398132 225.89901001 476.03398132 235.07901001 476.03398132 C235.07901001 481.31398132 235.07901001 486.59398132 235.07901001 492.03398132 C71.39901001 492.03398132 -92.28098999 492.03398132 -260.92098999 492.03398132 C-260.92098999 486.75398132 -260.92098999 481.47398132 -260.92098999 476.03398132 C-253.00098999 476.03398132 -245.08098999 476.03398132 -236.92098999 476.03398132 C-236.92467716 474.12048008 -236.92836433 472.20697884 -236.93216324 470.23549271 C-237.01873414 424.84582667 -237.08472171 379.45616967 -237.12525131 334.06643809 C-237.13025433 328.48367892 -237.1354316 322.90091992 -237.14071655 317.31816101 C-237.14176579 316.20670156 -237.14281504 315.0952421 -237.14389607 313.95010206 C-237.16131665 295.93703458 -237.19286343 277.92401799 -237.22960117 259.91098073 C-237.26696463 241.43752187 -237.2892161 222.96408972 -237.29734397 204.49059463 C-237.30284129 193.08504811 -237.32022411 181.67964544 -237.35265586 170.27414319 C-237.37374705 162.4603542 -237.38020231 154.64663991 -237.3749955 146.8328245 C-237.37242529 142.31993638 -237.37645417 137.80730017 -237.39781189 133.29445648 C-237.41720641 129.166436 -237.41830662 125.03883801 -237.40458557 120.91079852 C-237.40288853 119.41409352 -237.40802298 117.91736269 -237.42052272 116.42070892 C-237.43648289 114.39247877 -237.42557091 112.36408961 -237.4131813 110.3358345 C-237.41470019 109.20730568 -237.41621907 108.07877686 -237.41778398 106.9160502 C-236.80812247 103.37919889 -235.67968968 102.24969235 -232.92098999 100.03398132 C-230.8863678 98.79177856 -230.8863678 98.79177856 -228.70101929 97.73490906 C-227.87377853 97.32985641 -227.04653778 96.92480377 -226.19422913 96.50747681 C-225.3035524 96.08180923 -224.41287567 95.65614166 -223.49520874 95.21757507 C-222.56420853 94.76463577 -221.63320831 94.31169647 -220.67399597 93.84503174 C-217.65595792 92.37919296 -214.6323776 90.92520921 -211.60848999 89.47148132 C-209.53003761 88.46499564 -207.4519129 87.45783302 -205.37411499 86.44999695 C-199.56163986 83.6337387 -193.74245174 80.83160654 -187.92098999 78.03398132 C-186.61970289 77.40787851 -185.31843077 76.78174456 -184.0171814 76.15556335 C-179.44548156 73.95807757 -174.86930828 71.77032516 -170.28817749 69.59257507 C-163.69375157 66.455652 -157.12067237 63.2745007 -150.54598999 60.09648132 C-141.51032562 55.7297551 -132.47016055 51.37267448 -123.42098999 47.03398132 C-113.79451428 42.41824129 -104.17811119 37.78189997 -94.56546021 33.13746643 C-85.23451307 28.62944087 -75.89539289 24.13873108 -66.54989624 19.66093445 C-60.62266606 16.81843773 -54.70251021 13.96178131 -48.78817749 11.09257507 C-48.09318146 10.75557083 -47.39818542 10.41856659 -46.68212891 10.0713501 C-43.27466335 8.41893323 -39.86794304 6.76501267 -36.4624939 5.10844421 C-34.02401606 3.92304103 -31.58152721 2.7475613 -29.13583374 1.57695007 C-27.18182809 0.63912233 -25.23443211 -0.31287877 -23.29989624 -1.29023743 C-22.54579468 -1.65762024 -21.79169312 -2.02500305 -21.01473999 -2.40351868 C-20.40307983 -2.71160461 -19.79141968 -3.01969055 -19.16122437 -3.33711243 C-11.79304676 -5.40559821 -6.49905125 -3.33389444 0 0 Z M-164.92098999 196.03398132 C-164.92098999 201.31398132 -164.92098999 206.59398132 -164.92098999 212.03398132 C-64.60098999 212.03398132 35.71901001 212.03398132 139.07901001 212.03398132 C139.07901001 206.75398132 139.07901001 201.47398132 139.07901001 196.03398132 C38.75901001 196.03398132 -61.56098999 196.03398132 -164.92098999 196.03398132 Z M-164.92098999 228.03398132 C-164.92098999 233.31398132 -164.92098999 238.59398132 -164.92098999 244.03398132 C-64.60098999 244.03398132 35.71901001 244.03398132 139.07901001 244.03398132 C139.07901001 238.75398132 139.07901001 233.47398132 139.07901001 228.03398132 C38.75901001 228.03398132 -61.56098999 228.03398132 -164.92098999 228.03398132 Z M11.07901001 300.03398132 C11.07901001 331.71398132 11.07901001 363.39398132 11.07901001 396.03398132 C42.75901001 396.03398132 74.43901001 396.03398132 107.07901001 396.03398132 C107.07901001 364.35398132 107.07901001 332.67398132 107.07901001 300.03398132 C99.15901001 300.03398132 91.23901001 300.03398132 83.07901001 300.03398132 C83.07901001 313.23398132 83.07901001 326.43398132 83.07901001 340.03398132 C67.23901001 340.03398132 51.39901001 340.03398132 35.07901001 340.03398132 C35.07901001 326.83398132 35.07901001 313.63398132 35.07901001 300.03398132 C27.15901001 300.03398132 19.23901001 300.03398132 11.07901001 300.03398132 Z M51.07901001 300.03398132 C51.07901001 307.95398132 51.07901001 315.87398132 51.07901001 324.03398132 C56.35901001 324.03398132 61.63901001 324.03398132 67.07901001 324.03398132 C67.07901001 316.11398132 67.07901001 308.19398132 67.07901001 300.03398132 C61.79901001 300.03398132 56.51901001 300.03398132 51.07901001 300.03398132 Z M147.07901001 348.03398132 C147.07901001 369.15398132 147.07901001 390.27398132 147.07901001 412.03398132 C94.27901001 412.03398132 41.47901001 412.03398132 -12.92098999 412.03398132 C-12.92098999 425.23398132 -12.92098999 438.43398132 -12.92098999 452.03398132 C-9.95098999 452.03398132 -6.98098999 452.03398132 -3.92098999 452.03398132 C-3.6902478 451.3817157 -3.45950562 450.72945007 -3.22177124 450.05741882 C0.5017103 440.07907698 5.55669846 434.78739538 15.07901001 430.03398132 C22.51050042 427.4036457 33.39629963 427.95881033 40.70401001 430.72148132 C47.86861736 434.1657733 52.52246899 438.90801326 56.07901001 446.03398132 C56.73901001 448.01398132 57.39901001 449.99398132 58.07901001 452.03398132 C87.77901001 452.03398132 117.47901001 452.03398132 148.07901001 452.03398132 C149.39901001 448.73398132 150.71901001 445.43398132 152.07901001 442.03398132 C156.0077534 436.02531497 162.13437908 431.78410656 168.91104126 429.38554382 C179.52150172 427.66492861 189.62007248 428.3866167 198.84072876 434.13163757 C204.71911628 438.49970891 208.1724838 445.10115875 210.07901001 452.03398132 C210.40901001 452.03398132 210.73901001 452.03398132 211.07901001 452.03398132 C211.10430706 445.51950405 211.12185445 439.00503939 211.13394165 432.49052429 C211.1389791 430.27307156 211.14580923 428.05562216 211.15444946 425.83818054 C211.16654073 422.65604328 211.17224411 419.47394982 211.17666626 416.29179382 C211.18182755 415.29592255 211.18698883 414.30005127 211.19230652 413.27400208 C211.19238205 412.35319855 211.19245758 411.43239502 211.1925354 410.48368835 C211.19475601 409.67094452 211.19697662 408.85820068 211.19926453 408.02082825 C211.20485659 405.95870773 211.20485659 405.95870773 210.07901001 404.03398132 C209.44673996 404.02811508 208.81446991 404.02224884 208.16304016 404.01620483 C201.59314709 403.95236146 195.02374801 403.86796551 188.45425415 403.77153015 C186.00119532 403.73823806 183.5480591 403.71021963 181.09487915 403.68754578 C177.57232623 403.65407903 174.05048536 403.60176618 170.52822876 403.54570007 C169.42814987 403.53931015 168.32807098 403.53292023 167.19465637 403.52633667 C166.17382462 403.50654251 165.15299286 403.48674835 164.10122681 403.46635437 C163.20187912 403.45525131 162.30253143 403.44414825 161.37593079 403.43270874 C159.07901001 403.03398132 159.07901001 403.03398132 157.28938293 401.75476074 C155.10007418 398.64223453 155.65432045 394.77124666 155.68057251 391.09648132 C155.67626724 389.78175842 155.67626724 389.78175842 155.671875 388.44047546 C155.66983403 386.58784845 155.67536623 384.7351999 155.68789673 382.88261414 C155.70395017 380.04455953 155.68804946 377.20792906 155.66885376 374.36991882 C155.67083619 372.57043651 155.67467985 370.77095508 155.68057251 368.97148132 C155.67449982 368.12142517 155.66842712 367.27136902 155.66217041 366.39555359 C155.73280912 360.48747952 155.73280912 360.48747952 157.39265442 358.3132019 C160.14335369 356.22660099 163.26931791 356.55230934 166.59072876 356.52226257 C167.68306572 356.49533577 167.68306572 356.49533577 168.79747009 356.46786499 C171.12042472 356.41373919 173.44317367 356.37986052 175.76651001 356.34648132 C177.34271052 356.31331008 178.91888388 356.27882059 180.49502563 356.2429657 C184.35620537 356.15801202 188.21732388 356.09121257 192.07901001 356.03398132 C191.08901001 353.39398132 190.09901001 350.75398132 189.07901001 348.03398132 C175.21901001 348.03398132 161.35901001 348.03398132 147.07901001 348.03398132 Z M171.07901001 372.03398132 C171.07901001 377.31398132 171.07901001 382.59398132 171.07901001 388.03398132 C181.96901001 388.03398132 192.85901001 388.03398132 204.07901001 388.03398132 C202.09901001 382.75398132 200.11901001 377.47398132 198.07901001 372.03398132 C189.16901001 372.03398132 180.25901001 372.03398132 171.07901001 372.03398132 Z M-196.92098999 380.03398132 C-196.92098999 411.71398132 -196.92098999 443.39398132 -196.92098999 476.03398132 C-165.24098999 476.03398132 -133.56098999 476.03398132 -100.92098999 476.03398132 C-100.92098999 444.35398132 -100.92098999 412.67398132 -100.92098999 380.03398132 C-108.84098999 380.03398132 -116.76098999 380.03398132 -124.92098999 380.03398132 C-124.92098999 393.23398132 -124.92098999 406.43398132 -124.92098999 420.03398132 C-140.76098999 420.03398132 -156.60098999 420.03398132 -172.92098999 420.03398132 C-172.92098999 406.83398132 -172.92098999 393.63398132 -172.92098999 380.03398132 C-180.84098999 380.03398132 -188.76098999 380.03398132 -196.92098999 380.03398132 Z M-156.92098999 380.03398132 C-156.92098999 387.95398132 -156.92098999 395.87398132 -156.92098999 404.03398132 C-151.64098999 404.03398132 -146.36098999 404.03398132 -140.92098999 404.03398132 C-140.92098999 396.11398132 -140.92098999 388.19398132 -140.92098999 380.03398132 C-146.20098999 380.03398132 -151.48098999 380.03398132 -156.92098999 380.03398132 Z M13.70401001 451.65898132 C11.49993108 456.23668372 11.28184611 460.03950543 12.07901001 465.03398132 C14.40869932 469.87256681 17.24042453 472.70429202 22.07901001 475.03398132 C27.0734859 475.83114523 30.87630762 475.61306025 35.45401001 473.40898132 C39.03808714 470.16624487 41.67436242 467.56922236 42.46182251 462.63554382 C42.7178492 456.95175138 42.01527933 453.38459478 38.07901001 449.03398132 C33.72839656 445.09771201 30.16123995 444.39514214 24.47744751 444.65116882 C19.54376897 445.43862892 16.94674646 448.07490419 13.70401001 451.65898132 Z M165.70401001 451.65898132 C163.49993108 456.23668372 163.28184611 460.03950543 164.07901001 465.03398132 C166.40869932 469.87256681 169.24042453 472.70429202 174.07901001 475.03398132 C179.0734859 475.83114523 182.87630762 475.61306025 187.45401001 473.40898132 C191.03808714 470.16624487 193.67436242 467.56922236 194.46182251 462.63554382 C194.7178492 456.95175138 194.01527933 453.38459478 190.07901001 449.03398132 C185.72839656 445.09771201 182.16123995 444.39514214 176.47744751 444.65116882 C171.54376897 445.43862892 168.94674646 448.07490419 165.70401001 451.65898132 Z M58.07901001 468.03398132 C57.41901001 470.67398132 56.75901001 473.31398132 56.07901001 476.03398132 C87.09901001 476.03398132 118.11901001 476.03398132 150.07901001 476.03398132 C149.08901001 472.07398132 149.08901001 472.07398132 148.07901001 468.03398132 C118.37901001 468.03398132 88.67901001 468.03398132 58.07901001 468.03398132 Z " fill="#000000" transform="translate(268.9209899902344,11.966018676757813)"/>
<path d="M0 0 C89.76 0 179.52 0 272 0 C272 21.12 272 42.24 272 64 C182.24 64 92.48 64 0 64 C0 42.88 0 21.76 0 0 Z M16 16 C16 26.56 16 37.12 16 48 C95.2 48 174.4 48 256 48 C256 37.44 256 26.88 256 16 C176.8 16 97.6 16 16 16 Z " fill="#000000" transform="translate(120,112)"/>
<path d="M0 0 C2.5 1.5 2.5 1.5 4 4 C4.791013 8.02098277 4.62153384 10.96411027 2.5 14.5 C-1.03588973 16.62153384 -3.97901723 16.791013 -8 16 C-10.5 14.5 -10.5 14.5 -12 12 C-12.791013 7.97901723 -12.62153384 5.03588973 -10.5 1.5 C-6.96411027 -0.62153384 -4.02098277 -0.791013 0 0 Z " fill="#000000" transform="translate(452,464)"/>
<path d="M0 0 C2.5 1.5 2.5 1.5 4 4 C4.791013 8.02098277 4.62153384 10.96411027 2.5 14.5 C-1.03588973 16.62153384 -3.97901723 16.791013 -8 16 C-10.5 14.5 -10.5 14.5 -12 12 C-12.791013 7.97901723 -12.62153384 5.03588973 -10.5 1.5 C-6.96411027 -0.62153384 -4.02098277 -0.791013 0 0 Z " fill="#000000" transform="translate(300,464)"/>
<path d="M0 0 C2.64 0 5.28 0 8 0 C8 2.64 8 5.28 8 8 C5.36 8 2.72 8 0 8 C0 5.36 0 2.72 0 0 Z " fill="#000000" transform="translate(144,464)"/>
<path d="M0 0 C2.64 0 5.28 0 8 0 C8 2.64 8 5.28 8 8 C5.36 8 2.72 8 0 8 C0 5.36 0 2.72 0 0 Z " fill="#000000" transform="translate(128,464)"/>
<path d="M0 0 C2.64 0 5.28 0 8 0 C8 2.64 8 5.28 8 8 C5.36 8 2.72 8 0 8 C0 5.36 0 2.72 0 0 Z " fill="#000000" transform="translate(352,384)"/>
<path d="M0 0 C2.64 0 5.28 0 8 0 C8 2.64 8 5.28 8 8 C5.36 8 2.72 8 0 8 C0 5.36 0 2.72 0 0 Z " fill="#000000" transform="translate(336,384)"/>
</svg>
